<?xml version="1.0" standalone="no"?>
<!DOCTYPE svg PUBLIC "-//W3C//DTD SVG 1.1//EN" "http://www.w3.org/Graphics/SVG/1.1/DTD/svg11.dtd">
<svg width="100%" height="100%" viewBox="0 0 105 150" version="1.1" xmlns="http://www.w3.org/2000/svg" xmlns:xlink="http://www.w3.org/1999/xlink" xml:space="preserve" style="fill-rule:evenodd;clip-rule:evenodd;stroke-linejoin:round;stroke-miterlimit:1.41421;">
    <g transform="matrix(1,0,0,1,-20.5,-24.5)">
        <rect x="20.5" y="24.5" width="11.2" height="145" style="fill:white;"/>
        <g transform="matrix(0.7071,0.7071,-0.7071,0.7071,127.408,-24.2723)">
            <rect x="55.9" y="136.1" width="74.3" height="11.2" style="fill:white;"/>
        </g>
        <path d="M81.9,102.6C60.4,102.6 42.9,85.1 42.9,63.6C42.9,42.1 60.4,24.6 81.9,24.6C103.4,24.6 120.9,42.1 120.9,63.6C120.9,85.1 103.4,102.6 81.9,102.6ZM81.9,35.7C66.5,35.7 54,48.2 54,63.6C54,79 66.5,91.5 81.9,91.5C97.3,91.5 109.8,79 109.8,63.6C109.7,48.2 97.2,35.7 81.9,35.7Z" style="fill:white;fill-rule:nonzero;"/>
    </g>
</svg>
