<?xml version="1.0" encoding="utf-8"?>
<!-- Generator: Adobe Illustrator 19.0.1, SVG Export Plug-In . SVG Version: 6.00 Build 0)  -->
<!DOCTYPE svg PUBLIC "-//W3C//DTD SVG 1.1//EN" "http://www.w3.org/Graphics/SVG/1.1/DTD/svg11.dtd">
<svg version="1.1" id="Content" xmlns="http://www.w3.org/2000/svg" xmlns:xlink="http://www.w3.org/1999/xlink" x="0px" y="0px"
	 viewBox="0 0 600 190" xml:space="preserve">
<g>
	<rect fill='white' x="20.5" y="24.5" width="11.2" height="145"/>
	<rect fill='white' x="55.9" y="136.1" transform="matrix(0.7071 0.7071 -0.7071 0.7071 127.4077 -24.2723)" width="74.3" height="11.2"/>
	<path fill='white' d="M81.9,102.6c-21.5,0-39-17.5-39-39c0-21.5,17.5-39,39-39c21.5,0,39,17.5,39,39C120.9,85.1,103.4,102.6,81.9,102.6z
		 M81.9,35.7C66.5,35.7,54,48.2,54,63.6C54,79,66.5,91.5,81.9,91.5c15.4,0,27.9-12.5,27.9-27.9C109.7,48.2,97.2,35.7,81.9,35.7z"/>
</g>
<polygon fill='white' points="337.3,169.5 326.1,169.5 326.1,35.7 248.1,35.7 248.1,169.5 236.9,169.5 236.9,24.5 337.3,24.5 "/>
<path fill='white' d="M395.3,73.6c-13.5,0-24.5-11-24.5-24.5c0-13.5,11-24.5,24.5-24.5c13.5,0,24.5,11,24.5,24.5
	C419.8,62.6,408.8,73.6,395.3,73.6z M395.3,35.7c-7.4,0-13.4,6-13.4,13.4s6,13.4,13.4,13.4s13.4-6,13.4-13.4S402.7,35.7,395.3,35.7z
	"/>
<polygon fill='white' points="514.6,169.4 440.2,25.5 450.1,20.4 514.6,145.1 579.2,20.4 589.1,25.5 "/>
</svg>
